<?xml version="1.0" encoding="UTF-8"?>
<svg id="Layer_1" data-name="Layer 1" xmlns="http://www.w3.org/2000/svg" xmlns:xlink="http://www.w3.org/1999/xlink" viewBox="0 0 512 512">
  <defs>
    <style>
      .cls-1 {
        fill: none;
      }

      .cls-2 {
        fill: #167aa0;
      }

      .cls-3 {
        fill: #a2bbd0;
      }

      .cls-4 {
        fill: #fff;
      }

      .cls-5 {
        clip-path: url(#clippath);
      }
    </style>
    <clipPath id="clippath">
      <path class="cls-1" d="M139.21,45.34c-9.43,0-17.06,7.64-17.06,17.06v204.75c0,28,22.7,50.7,50.7,50.7h198.42c9.43,0,17.06-7.64,17.06-17.06V103.04c0-31.86-25.83-57.7-57.7-57.7h-191.42Z"/>
    </clipPath>
  </defs>
  <path class="cls-2" d="M24.45,464.81h12.44l12.76-28.42h58.55l12.6,28.42h13.06l-49.01-108.33h-11.37l-49.02,108.33ZM54.41,425.47l24.58-54.85,24.44,54.85h-49.03ZM198.69,466.66c18.13,0,33.19-7.54,43.17-16.45v-42.87h-44.41v10.91h32.73v26.73c-7.38,5.99-18.75,10.75-31.04,10.75-26.12,0-42.57-19.05-42.57-44.71v-.32c0-23.96,17.06-44.09,40.88-44.09,15.21,0,24.43,5.07,32.73,12.28l7.84-9.21c-10.76-9.07-21.99-14.29-40.11-14.29-32.27,0-53.94,26.12-53.94,55.62v.3c0,30.73,20.9,55.32,54.72,55.32M270.28,464.81h12.13v-107.56h-12.13v107.56ZM313.92,464.81h72.68v-11.21h-60.54v-96.35h-12.14v107.56ZM409.03,464.81h78.53v-11.06h-66.38v-37.65h58.69v-11.07h-58.69v-36.72h65.61v-11.07h-77.75v107.56Z"/>
  <g>
    <path class="cls-2" d="M371.27,317.85h-198.42c-27.99,0-50.7-22.69-50.7-50.69V62.4c0-9.43,7.63-17.06,17.06-17.06h191.42c31.86,0,57.7,25.84,57.7,57.7v197.76c0,9.42-7.63,17.05-17.06,17.05"/>
    <g class="cls-5">
      <path class="cls-3" d="M122.16,144.97v1.86l15.15,17.93-.27,1.54c0,2.07,1.42,3.75,3.17,3.75s3.15-1.69,3.14-3.76c0-2.08-1.41-3.75-3.16-3.75-.87,0-1.66.44-2.24,1.12l-15.78-18.69ZM140.2,168.3c-.95,0-1.7-.9-1.7-2.01,0-1.09.74-1.98,1.69-1.98s1.65.88,1.66,1.97c0,1.12-.74,2.02-1.65,2.02"/>
      <path class="cls-3" d="M159.6,45.34h-1.57l3.58,4.24.07,30.1c-1.41.39-2.45,1.89-2.45,3.67,0,2.06,1.43,3.74,3.17,3.74s3.15-1.69,3.15-3.76c0-1.71-.98-3.14-2.29-3.59l-.07-30.17-3.58-4.24ZM162.37,85.46c-.97,0-1.76-.94-1.76-2.11s.78-2.11,1.76-2.11h.01c.98,0,1.77.94,1.78,2.1,0,1.18-.79,2.12-1.78,2.12"/>
      <path class="cls-3" d="M122.16,85.18v1.87l28.57,33.83.14,60.12c-1.4.38-2.45,1.88-2.45,3.66,0,2.06,1.42,3.74,3.15,3.74h.01c1.75,0,3.15-1.69,3.15-3.76,0-1.71-.97-3.15-2.28-3.6l-.14-60.17-30.15-35.71ZM151.56,186.67c-.93,0-1.67-.91-1.67-2.01,0-1.13.74-2.02,1.67-2.02s1.71.9,1.71,2.01-.77,2.02-1.71,2.02h-.01"/>
      <path class="cls-3" d="M127.33,50.15c-.29.28-.57.57-.84.88l9.91,11.73.05,20.65,26.87,31.82.15,65.74c-1.4.38-2.45,1.88-2.45,3.66,0,2.07,1.43,3.75,3.16,3.75,1.76,0,3.15-1.69,3.15-3.77,0-1.71-.96-3.15-2.29-3.6l-.15-65.8-26.88-31.83-.05-20.64-10.64-12.61ZM164.17,186.46c-.84,0-1.51-.82-1.53-1.83,0-1.02.68-1.84,1.53-1.84s1.56.81,1.56,1.84-.7,1.83-1.55,1.83h-.01"/>
      <path class="cls-3" d="M146.95,45.34h-1.58l8.35,9.89.04,15.09c-1.41.38-2.45,1.88-2.45,3.67,0,2.04,1.42,3.74,3.16,3.74h.01c1.74,0,3.14-1.7,3.14-3.76,0-1.71-.96-3.15-2.28-3.6l-.03-15.15-8.35-9.89ZM154.46,76c-.93,0-1.69-.89-1.7-2.02,0-1.12.76-2.02,1.69-2.03.95,0,1.72.9,1.73,2.02,0,1.13-.77,2.03-1.72,2.03"/>
      <path class="cls-3" d="M122.16,131.87v1.85l15.11,17.9-.28,1.55c0,2.07,1.42,3.74,3.16,3.74h.01c1.74,0,3.15-1.69,3.14-3.76,0-2.07-1.41-3.74-3.15-3.74h-.01c-.88,0-1.66.43-2.24,1.11l-15.74-18.65ZM140.16,155.07c-.9,0-1.62-.86-1.62-1.92s.72-1.88,1.61-1.88,1.57.84,1.58,1.88c0,1.06-.72,1.91-1.57,1.92"/>
      <path class="cls-3" d="M124.52,68.43h-.01c-.87,0-1.66.43-2.22,1.11l-.12-.15v5.28c.58.77,1.41,1.26,2.35,1.26h.01c1.75,0,3.15-1.69,3.15-3.75,0-2.07-1.42-3.75-3.15-3.75M124.5,74.29c-.97,0-1.76-.93-1.76-2.11s.78-2.11,1.75-2.11h.01c.98,0,1.78.93,1.78,2.11,0,1.17-.79,2.11-1.79,2.11"/>
      <path class="cls-3" d="M122.16,118.77v1.87l15.08,17.86-.28,1.54c0,2.07,1.42,3.74,3.16,3.74h.01c1.74,0,3.15-1.68,3.14-3.76,0-2.07-1.42-3.74-3.15-3.74-.88,0-1.67.42-2.24,1.11l-15.72-18.62ZM140.13,142.05c-.94,0-1.72-.9-1.72-2.03s.77-1.99,1.71-1.99,1.67.89,1.67,1.99-.74,2.03-1.66,2.03"/>
      <path class="cls-3" d="M122.16,105.68v1.87l15.05,17.83-.28,1.54c0,2.06,1.42,3.74,3.16,3.74h.01c1.74,0,3.15-1.68,3.15-3.76,0-2.07-1.42-3.74-3.15-3.74h-.01c-.88,0-1.66.42-2.23,1.11l-15.69-18.59ZM140.1,128.59c-.79,0-1.42-.76-1.42-1.69,0-.91.62-1.66,1.41-1.66s1.39.73,1.39,1.66c0,.93-.62,1.69-1.38,1.69"/>
      <path class="cls-3" d="M134.53,45.99c-.42.12-.84.26-1.24.4l6.18,7.32-.28,1.55c0,2.06,1.42,3.74,3.16,3.74,1.75,0,3.15-1.69,3.15-3.76,0-2.07-1.41-3.74-3.14-3.74h-.01c-.87,0-1.66.43-2.22,1.1l-5.59-6.62ZM142.34,57.38c-.97,0-1.78-.93-1.78-2.12s.79-2.12,1.78-2.13h.01c.97,0,1.77.95,1.77,2.12,0,1.18-.8,2.13-1.78,2.13"/>
      <path class="cls-3" d="M346.51,47.55l-18.63,22.27.07,31.88-16.63,19.89c-.58-.66-1.35-1.08-2.21-1.08h-.02c-1.75,0-3.16,1.68-3.15,3.75,0,2.07,1.42,3.75,3.17,3.75s3.15-1.7,3.15-3.76l-.29-1.55,17.57-21-.07-31.89,18.31-21.89c-.42-.13-.84-.26-1.26-.37M309.09,126.04c-.82,0-1.5-.77-1.5-1.77s.67-1.78,1.49-1.78,1.5.79,1.5,1.77c0,1-.67,1.78-1.49,1.78"/>
      <path class="cls-3" d="M309.02,45.34h-1.57l-23.7,28.34,24,28.41-.29,1.55c0,2.06,1.41,3.75,3.17,3.75,1.74,0,3.15-1.7,3.15-3.76,0-2.07-1.42-3.74-3.16-3.74h-.01c-.87,0-1.66.42-2.23,1.1l-23.06-27.3,23.7-28.34ZM310.61,105.64c-.93,0-1.69-.89-1.69-2.01s.76-2.02,1.69-2.02,1.69.89,1.71,2.01c0,1.13-.77,2.02-1.7,2.02h-.01"/>
      <path class="cls-3" d="M338.48,45.87l-17.83,21.32c-.58-.66-1.37-1.09-2.23-1.09-1.75,0-3.16,1.69-3.15,3.76,0,2.06,1.42,3.75,3.17,3.75,1.74-.01,3.15-1.7,3.14-3.77l-.28-1.54,18.58-22.22c-.46-.08-.93-.14-1.4-.21M318.43,71.45c-.74,0-1.36-.72-1.36-1.61s.61-1.6,1.35-1.6,1.34.71,1.36,1.6c0,.9-.6,1.61-1.35,1.61"/>
      <path class="cls-3" d="M302.73,45.34h-1.57l-28.43,33.99,27.14,32.15-.27,1.55c0,2.06,1.41,3.74,3.15,3.74s3.15-1.7,3.15-3.76c0-2.07-1.41-3.75-3.16-3.75-.87,0-1.66.44-2.22,1.11l-26.21-31.04,28.43-33.99ZM302.76,115.03c-.93,0-1.68-.89-1.68-2s.74-2,1.67-2,1.69.89,1.69,1.99c0,1.12-.75,2.01-1.68,2.01"/>
      <path class="cls-3" d="M316.89,45.34h-1.57l-18.98,22.69,19.26,22.78-.28,1.55c0,2.06,1.42,3.74,3.16,3.74h.01c1.74,0,3.15-1.69,3.14-3.76,0-2.06-1.41-3.74-3.16-3.74-.87,0-1.66.42-2.24,1.11l-18.31-21.69,18.97-22.69ZM318.48,94.08c-.8,0-1.46-.76-1.46-1.71s.65-1.72,1.44-1.72,1.45.75,1.45,1.71-.63,1.72-1.43,1.72"/>
      <path class="cls-3" d="M290.14,45.34h-1.57l-22.17,26.51.1,41.26,28.45,33.7.04,16.88,12.94,15.3-.29,1.56c0,2.07,1.42,3.74,3.15,3.74h.01c1.75,0,3.15-1.69,3.15-3.76,0-2.08-1.41-3.75-3.16-3.75-.88,0-1.66.43-2.23,1.11l-11.98-14.2-.04-16.89-28.46-33.7-.1-41.26,22.17-26.5ZM310.8,182.47c-.9,0-1.63-.85-1.64-1.94,0-1.08.73-1.94,1.63-1.94s1.62.85,1.62,1.94c0,1.09-.73,1.94-1.61,1.94"/>
      <path class="cls-3" d="M283.15,45.34h-1.57l-23.76,28.4.08,41.27,30.05,35.57.06,26.35c-1.41.37-2.45,1.88-2.45,3.66,0,2.06,1.42,3.74,3.15,3.74h.01c1.74,0,3.16-1.68,3.16-3.76,0-1.71-.97-3.15-2.29-3.59l-.06-26.41-30.04-35.57-.1-41.27,23.76-28.39ZM288.73,181.52l-.79-.94.78-.94.79.93-.78.94Z"/>
      <path class="cls-3" d="M359.88,53.29l-10.65,12.73.21,80.74c-1.41.38-2.46,1.88-2.46,3.67,0,2.06,1.41,3.73,3.15,3.73h.01c1.75,0,3.16-1.69,3.15-3.75,0-1.71-.97-3.15-2.28-3.6l-.18-80.8,10.11-12.1c-.35-.22-.7-.43-1.05-.64M350.14,152.37c-.89,0-1.63-.86-1.64-1.94,0-1.08.73-1.94,1.63-1.94s1.63.85,1.64,1.94c0,1.09-.72,1.94-1.63,1.95"/>
      <path class="cls-3" d="M388.33,106.07l-20.21,24.16c-.57-.68-1.36-1.09-2.23-1.09-1.74,0-3.15,1.69-3.15,3.76,0,2.07,1.42,3.74,3.16,3.74h.01c1.74,0,3.15-1.68,3.14-3.76l-.28-1.54,19.56-23.38v-1.88ZM365.91,135.09c-1.04,0-1.86-.98-1.86-2.19-.02-1.24.81-2.24,1.85-2.24h.02c1.01,0,1.84,1,1.84,2.23,0,1.21-.82,2.19-1.85,2.2"/>
      <path class="cls-3" d="M383.11,79.03l-22.96,27.45c-.58-.67-1.36-1.09-2.24-1.09-1.75,0-3.15,1.69-3.15,3.76,0,2.06,1.41,3.75,3.16,3.75,1.75,0,3.15-1.7,3.15-3.76l-.28-1.56,22.86-27.33c-.18-.41-.36-.82-.54-1.22M357.92,111.31c-1,0-1.81-.94-1.82-2.16,0-1.21.82-2.17,1.81-2.17h.01c1.02,0,1.81.95,1.81,2.16,0,1.21-.8,2.16-1.81,2.16"/>
      <path class="cls-3" d="M378.71,71.12l-18.59,22.23c-.58-.68-1.36-1.09-2.25-1.09-1.73,0-3.14,1.69-3.14,3.76s1.42,3.75,3.16,3.75c1.74,0,3.15-1.69,3.15-3.76l-.28-1.55,18.63-22.28c-.22-.35-.45-.71-.69-1.06M357.87,98.17c-.98,0-1.8-.95-1.8-2.16s.81-2.16,1.8-2.16,1.82.94,1.82,2.16-.79,2.15-1.81,2.16h-.01"/>
      <path class="cls-3" d="M388.33,140.03l-48.69,58.2-31.62.09c-.3-1.68-1.56-2.91-3.08-2.91-1.74,0-3.15,1.69-3.14,3.77,0,2.07,1.41,3.74,3.15,3.74,1.45,0,2.65-1.15,3.03-2.73l31.66-.07,48.68-58.2v-1.89ZM304.95,201.03c-.87,0-1.56-.85-1.56-1.87,0-1.05.69-1.89,1.56-1.89s1.59.83,1.59,1.89c0,1.02-.71,1.87-1.58,1.87"/>
      <path class="cls-3" d="M354.4,50.45l-16.19,19.36.19,76.99c-1.41.37-2.46,1.88-2.45,3.66,0,2.06,1.41,3.74,3.15,3.74h.01c1.74,0,3.15-1.69,3.15-3.76,0-1.7-.97-3.15-2.29-3.59l-.17-77.05,15.74-18.82c-.38-.18-.76-.36-1.14-.53M339.11,152.21c-.81,0-1.48-.77-1.48-1.75s.66-1.76,1.46-1.76,1.47.77,1.47,1.75-.65,1.76-1.46,1.76"/>
      <path class="cls-3" d="M351.43,49.2l-17.24,20.61.1,45.02-15.06,18.01c-.58-.67-1.36-1.09-2.24-1.09-1.75,0-3.15,1.69-3.15,3.76,0,2.08,1.41,3.75,3.17,3.75,1.74,0,3.15-1.69,3.14-3.77l-.28-1.54,16-19.12-.1-45.02,16.84-20.13c-.39-.16-.78-.32-1.18-.47M317,137.19c-.78,0-1.42-.74-1.43-1.69,0-.95.64-1.69,1.42-1.7.79,0,1.42.75,1.42,1.69s-.63,1.69-1.42,1.69"/>
      <path class="cls-3" d="M367.27,58.46l-7.22,8.63c-.57-.67-1.36-1.09-2.24-1.09-1.73,0-3.14,1.69-3.14,3.77,0,2.05,1.41,3.74,3.16,3.74,1.75,0,3.15-1.7,3.15-3.76l-.28-1.55,7.49-8.96c-.31-.26-.61-.52-.93-.78M357.83,72c-1.03,0-1.88-.99-1.89-2.24,0-1.25.86-2.24,1.88-2.25,1.06,0,1.88.99,1.9,2.24,0,1.25-.83,2.24-1.89,2.25"/>
      <path class="cls-3" d="M373.4,64.31l-13.32,15.92c-.58-.68-1.36-1.1-2.24-1.1-1.74,0-3.15,1.69-3.14,3.77,0,2.06,1.41,3.75,3.15,3.75,1.75,0,3.15-1.7,3.15-3.77l-.28-1.55,13.47-16.11c-.27-.31-.53-.61-.81-.91M357.85,85.25c-1.08,0-1.97-1.05-1.98-2.36,0-1.31.9-2.36,1.99-2.36h.01c1.1,0,1.98,1.05,1.98,2.35,0,1.32-.87,2.37-1.98,2.37h-.01"/>
      <path class="cls-3" d="M248.29,45.34h-1.58l.15,65.95,28.47,33.69.08,31.98c-1.41.38-2.45,1.87-2.45,3.66,0,2.07,1.41,3.74,3.16,3.74h.01c1.74,0,3.15-1.68,3.14-3.76,0-1.7-.96-3.14-2.29-3.6l-.08-32.03-28.46-33.7-.15-65.94ZM276.12,182.59c-.92,0-1.66-.87-1.66-1.97,0-1.11.72-1.98,1.66-1.98s1.66.87,1.66,1.97-.73,1.98-1.66,1.98"/>
      <path class="cls-3" d="M207.12,45.34h-1.57l.13,56.66-17.29,20.67.08,32.04c-1.32.45-2.27,1.9-2.27,3.6,0,2.08,1.42,3.75,3.14,3.75h.01c1.75,0,3.15-1.69,3.15-3.76,0-1.79-1.05-3.28-2.45-3.65l-.08-31.97,17.29-20.67-.13-56.66ZM189.35,160.09c-.82,0-1.49-.78-1.49-1.78s.66-1.78,1.48-1.78,1.51.79,1.52,1.78c0,.99-.68,1.78-1.51,1.78"/>
      <path class="cls-3" d="M213.61,45.34h-1.58l.2,86.65-9.43,11.28.08,35.73c-1.4.39-2.44,1.89-2.44,3.67,0,2.08,1.42,3.75,3.16,3.75,1.74,0,3.16-1.69,3.15-3.76,0-1.71-.97-3.15-2.3-3.6l-.08-35.78,9.43-11.28-.21-86.65ZM203.59,184.56c-.88,0-1.59-.84-1.59-1.89,0-1.06.7-1.9,1.58-1.9s1.6.84,1.61,1.89c0,1.06-.72,1.89-1.6,1.9"/>
      <path class="cls-3" d="M229.37,45.34h-1.58l.17,73.49,14.22,16.85.17,65.74c-1.41.38-2.45,1.88-2.45,3.66,0,2.07,1.42,3.74,3.15,3.74h.01c1.74,0,3.15-1.69,3.14-3.76,0-1.71-.97-3.15-2.29-3.6l-.15-65.8-14.23-16.85-.17-73.49ZM243.06,206.94c-.88,0-1.56-.82-1.57-1.86,0-1.03.69-1.88,1.57-1.88s1.56.84,1.57,1.86c0,1.04-.71,1.87-1.56,1.87h-.01"/>
      <path class="cls-3" d="M224.64,45.34h-1.57l.18,77.25,12.65,14.98.07,31.88-6.29,7.52.06,24.47c-1.41.38-2.45,1.88-2.44,3.67,0,2.07,1.41,3.74,3.14,3.74h.01c1.74,0,3.15-1.68,3.15-3.76,0-1.71-.97-3.15-2.3-3.6l-.05-24.53,6.29-7.52-.08-31.89-12.65-14.97-.18-77.25ZM230.46,206.99c-.88,0-1.59-.83-1.59-1.88s.7-1.89,1.58-1.89,1.59.85,1.6,1.88c0,1.05-.72,1.89-1.59,1.89"/>
      <path class="cls-3" d="M218.34,45.34h-1.57l.37,156.14c-1.4.39-2.46,1.88-2.46,3.66,0,2.08,1.43,3.75,3.16,3.75h.01c1.74,0,3.15-1.69,3.15-3.76,0-1.71-.97-3.14-2.29-3.6l-.37-156.19ZM217.85,207.23c-.98,0-1.76-.93-1.76-2.09,0-1.14.76-2.08,1.75-2.09.95,0,1.76.94,1.77,2.08,0,1.16-.81,2.09-1.76,2.1"/>
      <path class="cls-3" d="M199.41,45.34h-1.57l.12,49.17-22.01,26.31.14,60.11c-1.41.39-2.45,1.88-2.45,3.67,0,2.07,1.42,3.74,3.14,3.74h.01c1.75,0,3.16-1.69,3.15-3.76,0-1.72-.96-3.15-2.28-3.6l-.15-60.17,22-26.31-.11-49.17ZM176.79,186.59c-.92,0-1.66-.9-1.66-1.98s.74-2,1.65-2,1.7.88,1.7,1.99c0,1.09-.74,1.99-1.69,1.99"/>
      <path class="cls-3" d="M237.96,45.34h-1.58l.16,67.84,15.81,18.72.12,54.39,13.57,16.07c-.56.68-.92,1.62-.92,2.66,0,2.07,1.41,3.74,3.16,3.74h.01c1.73,0,3.15-1.69,3.14-3.76,0-2.07-1.42-3.74-3.14-3.74h-.01l-1.32.33-12.92-15.31-.13-54.39-15.8-18.72-.16-67.84ZM268.3,206.7c-.8,0-1.42-.74-1.42-1.68,0-.92.62-1.69,1.41-1.69s1.42.76,1.42,1.69-.62,1.68-1.41,1.68"/>
      <path class="cls-3" d="M260.25,45.34h-5.96c-.36.61-.57,1.35-.57,2.16,0,2.06,1.42,3.74,3.15,3.74h.01c1.74,0,3.15-1.69,3.15-3.76l-.28-1.55.49-.59ZM256.89,49.31c-.86,0-1.54-.82-1.54-1.82s.67-1.82,1.53-1.83c.87,0,1.53.81,1.55,1.82,0,1-.67,1.83-1.54,1.83"/>
      <path class="cls-3" d="M234.1,45.34h-1.57l.17,71.6,14.23,16.84.13,56.27,7.9,9.37v1.96c-1.4.39-2.44,1.89-2.43,3.67,0,2.07,1.41,3.74,3.14,3.74h.01c1.73,0,3.15-1.68,3.15-3.76,0-1.71-.97-3.15-2.3-3.6v-2.03s-7.91-9.36-7.91-9.36l-.13-56.28-14.23-16.84-.17-71.6ZM255.68,206.91c-.87,0-1.57-.82-1.57-1.86s.69-1.88,1.56-1.88,1.57.84,1.57,1.86-.68,1.86-1.56,1.87"/>
      <path class="cls-3" d="M271.26,45.34h-1.58l-10.55,12.61c-.57-.67-1.36-1.1-2.22-1.1-1.75,0-3.15,1.69-3.15,3.78,0,2.06,1.42,3.74,3.16,3.74,1.74,0,3.15-1.7,3.15-3.76l-.28-1.55,11.47-13.72ZM256.92,62.68c-.97,0-1.74-.93-1.75-2.05,0-1.16.76-2.07,1.74-2.08.96,0,1.73.92,1.74,2.07,0,1.12-.77,2.06-1.73,2.06"/>
      <path class="cls-3" d="M241.99,45.34h-1.58l.16,65.96,22.13,26.21.09,39.48c-1.4.38-2.45,1.89-2.44,3.67,0,2.07,1.41,3.74,3.15,3.74h.01c1.74,0,3.15-1.69,3.15-3.77,0-1.7-.97-3.14-2.29-3.6l-.1-39.53-22.13-26.21-.15-65.96ZM263.5,182.73c-.96,0-1.76-.91-1.76-2.08s.77-2.08,1.75-2.09c.96,0,1.76.92,1.76,2.08,0,1.17-.78,2.08-1.75,2.09"/>
      <path class="cls-3" d="M173.81,45.34h-1.59l5.14,6.09.05,20.71c-1.41.39-2.46,1.89-2.46,3.67,0,2.06,1.42,3.74,3.16,3.74h.01c1.74,0,3.15-1.69,3.15-3.76,0-1.71-.96-3.15-2.28-3.6l-.05-20.78-5.13-6.08ZM178.11,78.07c-1.05,0-1.89-1-1.89-2.27s.83-2.27,1.88-2.27,1.92,1,1.93,2.26c0,1.27-.86,2.27-1.92,2.28"/>
    </g>
    <path class="cls-4" d="M331.37,245.31c-6.33,14.35-12.65,20.49-14.54,18.91-2.56-2.33-5.2-12.08-7.71-24.52,2.34-2.91,4.56-5.72,6.67-8.41,7.45-9.44,16.68-21.14,20.41-22.34,5.53-1.29,3.12,18.35-4.83,36.36M164.56,224.75l-1.71-1.7c-9.71-14.25,5.84-29.79,20.1-20.08l1.7,1.7c9.7,14.26-5.84,29.8-20.09,20.08M233.83,230.51c0,6.88-5.58,12.47-12.44,12.47s-12.46-5.59-12.46-12.47,5.59-12.45,12.46-12.45,12.44,5.59,12.44,12.45M340.57,198.59c-9.8-4.57-18.92,7.2-34.17,26.53-1.61-9.36-3.13-19.16-4.49-27.88-9.06-58.12-15.46-93.74-32.1-93.74-18.31,0-24.41,19.25-48.27,106.17h-.15c-11.5,0-20.85,9.35-20.85,20.83s9.35,20.85,20.85,20.85,20.83-9.36,20.83-20.85c0-7.49-3.99-14.05-9.93-17.73,9.44-34.3,14.88-47.8,20.72-68.84,8.83-31.75,14.37-29.26,15.31-29.28.2.07,7-.2,12.2,26.54,6.77,34.78,18.92,105.92,18.92,105.92,0,0-2.71-5.7-5.41-6.66-19.51,23.26-45.43,48.5-76.51,48.5-25.08,0-35.98-29.72-37.89-52.47,13.99-3.66,22.94-19.9,13.8-35.88-1.53-2.68-3.75-4.9-6.42-6.43-18.11-10.4-36.68,2.5-36.68,19.68,0,11.09,7.75,20.37,18.1,22.78,1.01,13.71,4.82,27.56,10.6,38.17,9.05,16.56,22.38,25.33,38.49,25.33,34.42,0,61.89-25.36,82.58-49.52,3.48,14.43,7.08,21.71,12.27,23.89,9.72,4.04,20.62-5.2,29.23-24.68,8.94-20.28,12.44-44.96-1.03-51.23"/>
  </g>
</svg>